HIERARCHY
ROOT Hips
{
	OFFSET 0.000000 0.000000 0.000000
	CHANNELS 6 Xposition Yposition Zposition Zrotation Yrotation Xrotation 
	JOINT LHipJoint
	{
		OFFSET 0.000000 0.000000 0.000000
		CHANNELS 3 Zrotation Yrotation Xrotation
		JOINT LeftUpLeg
		{
			OFFSET 1.363060 -1.794630 0.839290
			CHANNELS 3 Zrotation Yrotation Xrotation
			JOINT LeftLeg
			{
				OFFSET 2.448110 -6.726130 0.000000
				CHANNELS 3 Zrotation Yrotation Xrotation
				JOINT LeftFoot
				{
					OFFSET 2.562200 -7.039590 0.000000
					CHANNELS 3 Zrotation Yrotation Xrotation
					JOINT LeftToeBase
					{
						OFFSET 0.157640 -0.433110 2.322550
						CHANNELS 3 Zrotation Yrotation Xrotation
						End Site
						{
							OFFSET 0.000000 0.000000 0.000000
						}
					}
				}
			}
		}
	}
	JOINT RHipJoint
	{
		OFFSET 0.000000 0.000000 0.000000
		CHANNELS 3 Zrotation Yrotation Xrotation
		JOINT RightUpLeg
		{
			OFFSET -1.305520 -1.794630 0.839290
			CHANNELS 3 Zrotation Yrotation Xrotation
			JOINT RightLeg
			{
				OFFSET -2.542530 -6.985550 0.000000
				CHANNELS 3 Zrotation Yrotation Xrotation
				JOINT RightFoot
				{
					OFFSET -2.568260 -7.056230 0.000000
					CHANNELS 3 Zrotation Yrotation Xrotation
					JOINT RightToeBase
					{
						OFFSET -0.164730 -0.452590 2.363150
						CHANNELS 3 Zrotation Yrotation Xrotation
						End Site
						{
							OFFSET 0.000000 0.000000 0.000000
						}
					}
				}
			}
		}
	}
	JOINT LowerBack
	{
		OFFSET 0.000000 0.000000 0.000000
		CHANNELS 3 Zrotation Yrotation Xrotation
		JOINT Spine
		{
			OFFSET 0.028270 2.035590 -0.193380
			CHANNELS 3 Zrotation Yrotation Xrotation
			JOINT Spine1
			{
				OFFSET 0.056720 2.048850 -0.042750
				CHANNELS 3 Zrotation Yrotation Xrotation
				JOINT Neck
				{
					OFFSET 0.000000 0.000000 0.000000
					CHANNELS 3 Zrotation Yrotation Xrotation
					JOINT Neck1
					{
						OFFSET -0.054170 1.746240 0.172020
						CHANNELS 3 Zrotation Yrotation Xrotation
						JOINT Head
						{
							OFFSET 0.104070 1.761360 -0.123970
							CHANNELS 3 Zrotation Yrotation Xrotation
							End Site
							{
								OFFSET 0.000000 0.000000 0.000000
							}
						}
					}
				}
				JOINT LeftShoulder
				{
					OFFSET 0.000000 0.000000 0.000000
					CHANNELS 3 Zrotation Yrotation Xrotation
					JOINT LeftArm
					{
						OFFSET 3.362410 1.200890 -0.311210
						CHANNELS 3 Zrotation Yrotation Xrotation
						JOINT LeftForeArm
						{
							OFFSET 4.983000 -0.000000 -0.000000
							CHANNELS 3 Zrotation Yrotation Xrotation
							JOINT LeftHand
							{
								OFFSET 3.483560 -0.000000 -0.000000
								CHANNELS 3 Zrotation Yrotation Xrotation
								JOINT LeftFingerBase
								{
									OFFSET 0.000000 0.000000 0.000000
									CHANNELS 3 Zrotation Yrotation Xrotation
									JOINT LeftHandIndex1
									{
										OFFSET 0.715260 -0.000000 -0.000000
										CHANNELS 3 Zrotation Yrotation Xrotation
										End Site
										{
											OFFSET 0.000000 0.000000 0.000000
										}
									}
								}
								JOINT LThumb
								{
									OFFSET 0.000000 0.000000 0.000000
									CHANNELS 3 Zrotation Yrotation Xrotation
									End Site
									{
										OFFSET 0.000000 0.000000 0.000000
									}
								}
							}
						}
					}
				}
				JOINT RightShoulder
				{
					OFFSET 0.000000 0.000000 0.000000
					CHANNELS 3 Zrotation Yrotation Xrotation
					JOINT RightArm
					{
						OFFSET -3.136600 1.374050 -0.404650
						CHANNELS 3 Zrotation Yrotation Xrotation
						JOINT RightForeArm
						{
							OFFSET -5.241900 -0.000000 -0.000000
							CHANNELS 3 Zrotation Yrotation Xrotation
							JOINT RightHand
							{
								OFFSET -3.444170 -0.000000 -0.000000
								CHANNELS 3 Zrotation Yrotation Xrotation
								JOINT RightFingerBase
								{
									OFFSET 0.000000 0.000000 0.000000
									CHANNELS 3 Zrotation Yrotation Xrotation
									JOINT RightHandIndex1
									{
										OFFSET -0.622530 -0.000000 -0.000000
										CHANNELS 3 Zrotation Yrotation Xrotation
										End Site
										{
											OFFSET 0.000000 0.000000 0.000000
										}
									}
								}
								JOINT RThumb
								{
									OFFSET 0.000000 0.000000 0.000000
									CHANNELS 3 Zrotation Yrotation Xrotation
									End Site
									{
										OFFSET 0.000000 0.000000 0.000000
									}
								}
							}
						}
					}
				}
			}
		}
	}
}
MOTION
Frames: 7
Frame Time: 0.008333
1.440703 17.343433 26.367901 -179.304669 0.364117 -173.614721 6.977006 0.415371 -1.200759 -23.856327 -13.650602 -26.298217 1.322710 12.281012 30.435630 0.275707 9.985067 8.130332 0.269000 -3.336100 -9.216000 -11.574158 -2.903790 -4.478399 33.619550 -2.154146 7.939405 -7.942364 -15.151261 57.028096 -0.890035 -20.577127 13.867894 -0.636200 5.103200 -14.203100 -0.117468 4.464033 0.609695 -0.714942 5.394905 -3.711446 -2.268006 2.793769 9.712986 -4.482625 -6.270469 -29.957575 7.273722 -8.232799 11.739012 0.435700 -3.122600 25.920400 10.434753 4.352052 -1.082095 -71.573507 36.600888 62.522202 124.464224 -56.841942 -85.277123 1.589681 -0.761605 16.955750 14.935726 1.273036 0.364500 -7.125000 0.000000 0.000000 -10.674700 31.464200 3.588200 -11.383576 -0.000120 0.222706 84.642692 -10.663644 60.577628 -119.462129 53.458857 -77.002820 0.096789 -1.357096 5.263660 -11.292681 -1.358224 -0.002900 7.125000 0.000000 0.000000 11.794800 -29.856300 4.442600 
1.421085 17.217469 26.008342 -179.571928 0.108033 -173.917539 6.936554 0.462869 -1.243193 -24.717915 -13.273469 -25.302417 1.707546 12.842667 32.345534 0.002519 10.862300 5.200537 0.232300 -3.102200 -8.563300 -11.448044 -2.893633 -4.352905 32.720187 -2.289317 6.259027 -9.026836 -15.871874 60.813672 -0.792475 -20.527218 12.910715 -0.678800 5.267900 -14.674300 -0.314121 4.107749 1.029168 -0.690178 4.960318 -3.683941 -2.237681 2.566175 9.648277 -4.750371 -6.311748 -29.796948 7.494074 -8.161697 11.765598 0.756700 -3.157500 25.935600 10.393915 4.358791 -1.043930 -72.658318 35.723792 62.230545 123.735194 -57.007127 -84.667073 1.586245 -0.749763 16.675099 15.065385 1.119139 0.331300 -7.125000 0.000000 0.000000 -10.547300 31.309000 3.584000 -11.453989 0.070564 0.285216 84.896355 -11.846465 59.643031 -117.471373 54.092105 -74.825320 0.063614 -1.497834 7.329520 -12.659787 -1.978143 0.105200 7.125000 0.000000 0.000000 10.758400 -30.352800 3.909000 
1.403289 17.147358 25.644066 179.937202 0.027234 -174.132622 6.904125 0.485042 -1.269714 -25.657425 -13.271367 -24.433155 2.030403 13.302819 33.909831 -0.209844 11.952741 2.815073 0.217200 -3.000000 -8.278800 -11.328868 -2.876532 -4.200943 31.572237 -2.083057 4.342254 -10.099793 -16.502466 64.385572 -0.703186 -20.227427 11.923382 -0.663500 5.209300 -14.506600 -0.861928 3.825787 1.270686 -0.658709 4.603102 -3.703395 -2.147072 2.371458 9.377510 -4.471204 -5.911096 -29.207049 7.557665 -7.773406 11.661749 0.746000 -2.983300 25.294300 10.447963 4.265891 -1.003299 -73.874463 34.761250 62.019715 122.491436 -57.300426 -83.577972 1.572220 -0.704044 16.850921 15.253967 1.390943 0.391600 -7.125000 0.000000 0.000000 -10.405100 31.543800 3.474600 -11.440208 0.095329 0.351066 85.490557 -13.689607 58.288900 -115.550406 54.746415 -72.697429 0.088218 -1.567538 7.186296 -12.790245 -2.297260 0.164400 7.125000 0.000000 0.000000 10.660900 -30.606500 3.806600 
1.385815 17.046159 25.288258 179.487143 -0.078493 -174.388120 6.873448 0.521466 -1.304050 -26.620343 -12.996959 -23.433048 2.352556 13.706571 35.380767 -0.397836 12.939407 0.468815 0.219500 -3.015900 -8.322900 -11.209184 -2.854487 -4.071823 30.442249 -1.979257 2.557681 -11.199614 -17.060018 67.930165 -0.611383 -19.932541 10.908071 -0.661900 5.203300 -14.489300 -1.338016 3.543024 1.619105 -0.644703 4.251059 -3.695667 -2.085773 2.177299 9.237286 -4.409920 -5.765393 -28.928759 7.685034 -7.593090 11.580508 0.849000 -2.908900 24.959700 10.453218 4.215581 -0.962453 -75.018243 33.577943 61.799254 121.257165 -57.568290 -82.510831 1.559730 -0.663319 16.776222 15.449322 1.561559 0.431900 -7.125000 0.000000 0.000000 -10.247900 31.688500 3.384400 -11.469681 0.141703 0.427856 86.046693 -15.208769 56.775563 -113.527276 55.413359 -70.462884 0.094445 -1.654282 7.598907 -13.160788 -2.613091 0.224000 7.125000 0.000000 0.000000 10.372400 -30.843000 3.640700 
1.370056 16.950319 24.936846 178.964870 -0.095485 -174.641953 6.847982 0.560524 -1.341622 -27.639682 -12.657879 -22.337695 2.632814 14.022391 36.607793 -0.557096 13.920758 -1.602345 0.217800 -3.004200 -8.290400 -11.091648 -2.822958 -3.940946 29.229905 -1.736279 0.684701 -12.313471 -17.556201 71.406451 -0.527021 -19.496811 9.875730 -0.662700 5.206400 -14.498300 -1.920264 3.284743 2.017847 -0.640659 3.927020 -3.681789 -2.009553 1.990694 9.108851 -4.331638 -5.647545 -28.694903 7.824921 -7.436798 11.460508 0.944800 -2.831900 24.588900 10.456544 4.162788 -0.917670 -76.230524 32.160002 61.574321 119.816697 -57.865136 -81.259123 1.543413 -0.609423 16.651061 15.689383 1.853102 0.503000 -7.125000 0.000000 0.000000 -10.062200 31.947800 3.257600 -11.506161 0.190101 0.520648 86.702147 -16.700165 55.012580 -111.232179 56.159013 -67.946460 0.098533 -1.753109 8.007361 -13.592950 -2.944623 0.288800 7.125000 0.000000 0.000000 10.033400 -31.084100 3.459500 
1.356977 16.860483 24.590902 178.381926 -0.013251 -174.907628 6.827250 0.603660 -1.386321 -28.701354 -12.187019 -21.169972 2.877258 14.266008 37.635728 -0.691204 14.830689 -3.410999 0.227300 -3.068400 -8.469300 -10.977963 -2.780625 -3.806723 27.960049 -1.339166 -1.279238 -13.446359 -18.002018 74.848424 -0.440668 -18.991905 8.754825 -0.661800 5.202800 -14.487800 -2.607331 3.066686 2.467610 -0.648041 3.648611 -3.658252 -1.917925 1.818417 9.014928 -4.221106 -5.559679 -28.560324 7.978800 -7.318015 11.318700 1.029200 -2.753200 24.242800 10.455314 4.112050 -0.872999 -77.457347 30.484890 61.374137 118.208320 -58.174791 -79.855105 1.521891 -0.543579 16.514884 15.945526 2.285916 0.611200 -7.125000 0.000000 0.000000 -9.872400 32.342800 3.099200 -11.548785 0.239185 0.631887 87.450406 -18.139151 52.967361 -108.718784 56.969553 -65.234043 0.113486 -1.855641 8.202733 -13.969514 -3.347629 0.373700 7.125000 0.000000 0.000000 9.739800 -31.394300 3.282000 
1.347544 16.775792 24.252140 177.747613 0.160159 -175.186960 6.812070 0.651763 -1.439417 -29.793844 -11.561972 -19.913883 3.075559 14.429677 38.430820 -0.803186 15.653408 -4.914147 0.247300 -3.199700 -8.835200 -10.870780 -2.726716 -3.668859 26.654489 -0.789534 -3.335653 -14.577552 -18.399775 78.208238 -0.354714 -18.475368 7.587088 -0.664500 5.213300 -14.517800 -3.384137 2.883338 2.974905 -0.666815 3.405163 -3.623374 -1.811838 1.653874 8.964673 -4.112727 -5.524653 -28.547703 8.150864 -7.246632 11.154884 1.117900 -2.682700 23.939600 10.444155 4.069570 -0.831300 -78.669811 28.599186 61.189034 116.552671 -58.468385 -78.405386 1.497330 -0.473368 16.417313 16.192699 2.800632 0.743700 -7.125000 0.000000 0.000000 -9.695600 32.818000 2.929600 -11.600167 0.287803 0.765126 88.237324 -19.497602 50.702278 -105.963016 57.844060 -62.341344 0.133180 -1.970280 8.327111 -14.451410 -3.875763 0.496300 7.125000 0.000000 0.000000 9.369000 -31.821800 3.056500 
